<mxfile host="65bd71144e">
    <diagram id="HIP3nbAZw_EuaXWnEj3U" name="Page-1">
        <mxGraphModel dx="1214" dy="765" grid="1" gridSize="10" guides="1" tooltips="1" connect="1" arrows="1" fold="1" page="1" pageScale="1" pageWidth="850" pageHeight="1100" math="0" shadow="0">
            <root>
                <mxCell id="0"/>
                <mxCell id="1" parent="0"/>
                <mxCell id="7" value="http://ics2o.mths.ca" style="swimlane;whiteSpace=wrap;html=1;" parent="1" vertex="1">
                    <mxGeometry x="40" y="40" width="760" height="480" as="geometry"/>
                </mxCell>
                <mxCell id="9" value="&lt;div&gt;&lt;font color=&quot;#000000&quot;&gt;Input two numbers to multiply&lt;/font&gt;&lt;/div&gt;" style="text;html=1;align=center;verticalAlign=middle;resizable=0;points=[];autosize=1;strokeColor=none;fillColor=none;fontSize=20;" vertex="1" parent="7">
                    <mxGeometry x="10" y="80" width="280" height="40" as="geometry"/>
                </mxCell>
                <mxCell id="10" value="0" style="whiteSpace=wrap;html=1;" vertex="1" parent="7">
                    <mxGeometry x="110" y="150" width="60" height="20" as="geometry"/>
                </mxCell>
                <mxCell id="11" value="Enter first number" style="text;html=1;align=center;verticalAlign=middle;resizable=0;points=[];autosize=1;strokeColor=none;fillColor=none;" vertex="1" parent="7">
                    <mxGeometry y="145" width="120" height="30" as="geometry"/>
                </mxCell>
                <mxCell id="13" value="Enter second number" style="text;html=1;align=center;verticalAlign=middle;resizable=0;points=[];autosize=1;strokeColor=none;fillColor=none;" vertex="1" parent="7">
                    <mxGeometry y="178" width="140" height="30" as="geometry"/>
                </mxCell>
                <mxCell id="14" value="20" style="whiteSpace=wrap;html=1;" vertex="1" parent="7">
                    <mxGeometry x="140" y="178" width="60" height="20" as="geometry"/>
                </mxCell>
                <mxCell id="15" value="Multiply" style="whiteSpace=wrap;html=1;" vertex="1" parent="7">
                    <mxGeometry x="20" y="230" width="80" height="30" as="geometry"/>
                </mxCell>
                <mxCell id="16" value="0 x 20 = 0" style="text;html=1;align=center;verticalAlign=middle;resizable=0;points=[];autosize=1;strokeColor=none;fillColor=none;" vertex="1" parent="7">
                    <mxGeometry x="20" y="270" width="80" height="30" as="geometry"/>
                </mxCell>
                <mxCell id="8" value="Multiply Two Numbers" style="text;html=1;align=center;verticalAlign=middle;resizable=0;points=[];autosize=1;strokeColor=none;fillColor=none;fontSize=22;" vertex="1" parent="1">
                    <mxGeometry x="290" y="73" width="240" height="40" as="geometry"/>
                </mxCell>
            </root>
        </mxGraphModel>
    </diagram>
</mxfile>